<?xml version="1.0" encoding="UTF-8" standalone="no"?>
<svg
   width="45.656166mm"
   height="11.405068mm"
   viewBox="0 0 45.656167 11.405069"
   version="1.1"
   id="svg8"
   sodipodi:docname="logo.svg"
   inkscape:version="1.3 (0e150ed6c4, 2023-07-21)"
   xmlns:inkscape="http://www.inkscape.org/namespaces/inkscape"
   xmlns:sodipodi="http://sodipodi.sourceforge.net/DTD/sodipodi-0.dtd"
   xmlns="http://www.w3.org/2000/svg"
   xmlns:svg="http://www.w3.org/2000/svg"
   xmlns:rdf="http://www.w3.org/1999/02/22-rdf-syntax-ns#"
   xmlns:cc="http://creativecommons.org/ns#"
   xmlns:dc="http://purl.org/dc/elements/1.1/">
  <sodipodi:namedview
     pagecolor="#ffffff"
     bordercolor="#666666"
     borderopacity="1"
     objecttolerance="10"
     gridtolerance="10"
     guidetolerance="10"
     inkscape:pageopacity="0"
     inkscape:pageshadow="2"
     inkscape:window-width="2560"
     inkscape:window-height="1009"
     id="namedview23"
     showgrid="false"
     fit-margin-top="0"
     fit-margin-left="0"
     fit-margin-right="0"
     fit-margin-bottom="0"
     inkscape:zoom="1.5646816"
     inkscape:cx="-162.0138"
     inkscape:cy="-68.704076"
     inkscape:window-x="1912"
     inkscape:window-y="-8"
     inkscape:window-maximized="1"
     inkscape:current-layer="svg8"
     inkscape:showpageshadow="2"
     inkscape:pagecheckerboard="0"
     inkscape:deskcolor="#d1d1d1"
     inkscape:document-units="mm" />
  <defs
     id="defs2" />
  <metadata
     id="metadata5">
    <rdf:RDF>
      <cc:Work
         rdf:about="">
        <dc:format>image/svg+xml</dc:format>
        <dc:type
           rdf:resource="http://purl.org/dc/dcmitype/StillImage" />
      </cc:Work>
    </rdf:RDF>
  </metadata>
  <path
     style="font-size:9.75065px;line-height:1.25;font-family:Arial;-inkscape-font-specification:'Arial, Normal';fill:#005cbc;stroke-width:0.243768"
     d="M 2.7440344,9.0489149 V 2.0692013 H 3.66768 v 6.9797136 z m 2.4424237,0 V 3.9926694 H 5.9577498 V 4.7115895 Q 6.5147937,3.878404 7.566988,3.878404 q 0.4570617,0 0.8379465,0.1666371 0.3856458,0.161876 0.5760882,0.4284954 0.1904424,0.2666193 0.2666194,0.6332209 0.04761,0.238053 0.04761,0.8331855 v 3.108972 H 8.4382619 V 5.9732703 q 0,-0.5237166 -0.099982,-0.7808138 Q 8.2382974,4.9305982 7.9812002,4.7782443 7.728864,4.6211293 7.3860677,4.6211293 q -0.5475219,0 -0.9474509,0.3475574 -0.395168,0.3475574 -0.395168,1.3188135 v 2.7614147 z m 5.6275729,0 V 4.6592178 H 10.057022 V 3.9926694 h 0.757009 V 3.4546697 q 0,-0.5094334 0.09046,-0.7570085 0.123788,-0.3332742 0.433256,-0.5379998 0.31423,-0.2094866 0.876035,-0.2094866 0.361841,0 0.799859,0.085699 l -0.128549,0.7474864 q -0.266619,-0.047611 -0.504672,-0.047611 -0.390407,0 -0.552283,0.166637 -0.161876,0.1666371 -0.161876,0.6236989 V 3.9926694 H 12.6518 v 0.6665484 h -0.985539 v 4.3896971 z m 2.185326,-2.5281227 q 0,-1.4045127 0.780814,-2.0805831 0.652265,-0.5618051 1.590194,-0.5618051 1.042672,0 1.704459,0.6855926 0.661787,0.6808316 0.661787,1.8853797 0,0.9760172 -0.295185,1.5378223 -0.290425,0.557044 -0.85223,0.8665129 -0.557044,0.3094688 -1.218831,0.3094688 -1.061717,0 -1.718743,-0.6808315 -0.652265,-0.6808315 -0.652265,-1.9615566 z m 0.880796,0 q 0,0.9712562 0.423734,1.4568843 0.423735,0.480867 1.066478,0.480867 0.637982,0 1.061716,-0.4856281 0.423734,-0.4856281 0.423734,-1.4806896 0,-0.9379288 -0.428495,-1.4187958 -0.423734,-0.4856281 -1.056955,-0.4856281 -0.642743,0 -1.066478,0.480867 -0.423734,0.4808671 -0.423734,1.4521233 z m 6.965431,2.5281227 -2.704282,-6.9797136 h 0.999823 l 1.813963,5.0705286 q 0.219009,0.6094157 0.366602,1.1426544 0.161876,-0.5713272 0.376124,-1.1426544 l 1.885379,-5.0705286 h 0.94269 L 21.793035,9.0489149 Z M 25.073405,3.0547407 V 2.0692013 h 0.85699 v 0.9855394 z m 0,5.9941742 V 3.9926694 h 0.85699 V 9.0489149 Z M 26.89213,7.539659 27.739599,7.4063493 q 0.07142,0.5094334 0.395167,0.7808138 0.328514,0.2713804 0.914124,0.2713804 0.590371,0 0.876035,-0.238053 0.285664,-0.242814 0.285664,-0.5665661 0,-0.2904246 -0.252337,-0.4570617 Q 29.782093,7.0825972 29.082217,6.906438 28.139528,6.668385 27.772926,6.4969869 27.411085,6.3208277 27.220643,6.0161198 27.034962,5.706651 27.034962,5.3352883 q 0,-0.3380353 0.152354,-0.6236988 0.157115,-0.2904247 0.423734,-0.4808671 0.199964,-0.1475928 0.542761,-0.2475751 0.347557,-0.1047433 0.742725,-0.1047433 0.595133,0 1.042672,0.1713982 0.452301,0.1713981 0.666548,0.4665838 0.214248,0.2904247 0.295186,0.7808138 L 30.062996,5.4114652 Q 30.005863,5.0210583 29.729722,4.8020496 29.458341,4.5830408 28.95843,4.5830408 q -0.590372,0 -0.842708,0.1952035 -0.252336,0.1952034 -0.252336,0.4570617 0,0.1666371 0.104743,0.2999468 0.104744,0.1380707 0.328514,0.2285309 0.128548,0.047611 0.757008,0.2190087 0.909362,0.2428141 1.266442,0.399929 0.36184,0.152354 0.566566,0.4475397 0.204726,0.2951857 0.204726,0.7332032 0,0.4284953 -0.252337,0.8093801 -0.247575,0.3761237 -0.71892,0.5856104 -0.471345,0.2047255 -1.066477,0.2047255 -0.985539,0 -1.504495,-0.4094511 Q 27.034962,8.3442781 26.89213,7.539659 Z"
     id="text1"
     aria-label="InfoVis" />
  <path
     style="font-size:2.75625px;line-height:1.25;font-family:Arial;-inkscape-font-specification:'Arial, Normal';fill:#666666;stroke-width:0.0689067"
     d="M 33.92847,8.9013948 V 6.9284152 h 0.26109 v 1.9729796 z m 0.765774,0 V 6.9284152 h 0.26109 v 1.9729796 z m 2.129096,-0.6917541 0.26109,0.065945 q -0.0821,0.3216523 -0.296082,0.4912262 -0.21264,0.1682282 -0.520834,0.1682282 -0.318961,0 -0.519489,-0.1291992 Q 35.548843,8.6752962 35.443869,8.4290102 35.34024,8.1827242 35.34024,7.9001009 q 0,-0.3081939 0.117087,-0.5369842 0.118433,-0.2301361 0.335111,-0.3485687 0.218023,-0.1197785 0.479113,-0.1197785 0.296082,0 0.497956,0.1507325 0.201873,0.1507324 0.281277,0.4239349 l -0.257052,0.060562 q -0.06864,-0.215332 -0.199183,-0.3135772 -0.130545,-0.098245 -0.328381,-0.098245 -0.227444,0 -0.380868,0.1090119 -0.152079,0.1090118 -0.213987,0.2933898 -0.06191,0.1830323 -0.06191,0.3781769 0,0.2516693 0.07267,0.4400848 0.07402,0.1870697 0.22879,0.2799317 0.15477,0.092862 0.335111,0.092862 0.219369,0 0.371447,-0.1265076 0.152079,-0.1265075 0.205912,-0.3754852 z m 1.757647,0.4589264 v 0.2328277 h -1.304104 q -0.0027,-0.087479 0.02826,-0.1682281 0.0498,-0.1332367 0.158807,-0.2624359 0.110358,-0.1291992 0.317615,-0.2987732 0.321652,-0.2637817 0.434702,-0.4172058 0.113049,-0.1547699 0.113049,-0.292044 0,-0.1440033 -0.103628,-0.2422486 -0.102283,-0.099591 -0.26782,-0.099591 -0.174957,0 -0.279931,0.1049743 -0.104975,0.1049744 -0.106321,0.2906983 l -0.248977,-0.025571 q 0.02557,-0.2785858 0.192453,-0.4239349 0.166882,-0.146695 0.44816,-0.146695 0.283969,0 0.449505,0.1574616 0.165537,0.1574615 0.165537,0.3902893 0,0.1184326 -0.04845,0.2328277 -0.04845,0.1143951 -0.161499,0.2409027 -0.111704,0.1265076 -0.372794,0.3472229 -0.218023,0.1830322 -0.279931,0.2489777 -0.06191,0.0646 -0.102283,0.130545 z m 0.259745,-0.7402038 q 0,-0.3499146 0.07133,-0.562555 0.07268,-0.2139861 0.213987,-0.3297271 0.142657,-0.115741 0.357989,-0.115741 0.158807,0 0.278586,0.0646 0.119778,0.063254 0.197836,0.1843781 0.07806,0.1197784 0.12247,0.2933899 0.04441,0.1722656 0.04441,0.4656555 0,0.3472228 -0.07133,0.561209 -0.07133,0.2126404 -0.213986,0.3297272 -0.141312,0.115741 -0.35799,0.115741 -0.285315,0 -0.44816,-0.2045654 Q 38.840732,8.484189 38.840732,7.9283633 Z m 0.248977,0 q 0,0.4858428 0.11305,0.6473419 0.114395,0.1601532 0.281277,0.1601532 0.166882,0 0.279932,-0.1614991 0.114395,-0.161499 0.114395,-0.645996 0,-0.4871887 -0.114395,-0.6473419 -0.11305,-0.1601532 -0.282624,-0.1601532 -0.166882,0 -0.266473,0.1413116 -0.125162,0.1803406 -0.125162,0.6661835 z m 2.557068,0.7402038 v 0.2328277 h -1.304104 q -0.0027,-0.087479 0.02826,-0.1682281 0.0498,-0.1332367 0.158807,-0.2624359 0.110358,-0.1291992 0.317615,-0.2987732 0.321652,-0.2637817 0.434702,-0.4172058 0.113049,-0.1547699 0.113049,-0.292044 0,-0.1440033 -0.103629,-0.2422486 -0.102282,-0.099591 -0.267819,-0.099591 -0.174957,0 -0.279931,0.1049743 -0.104975,0.1049744 -0.106321,0.2906983 l -0.248977,-0.025571 q 0.02557,-0.2785858 0.192453,-0.4239349 0.166882,-0.146695 0.44816,-0.146695 0.283969,0 0.449505,0.1574616 0.165537,0.1574615 0.165537,0.3902893 0,0.1184326 -0.04845,0.2328277 -0.04845,0.1143951 -0.161499,0.2409027 -0.111704,0.1265076 -0.372794,0.3472229 -0.218023,0.1830322 -0.279931,0.2489777 -0.06191,0.0646 -0.102283,0.130545 z m 1.516745,-1.2570007 -0.240903,0.018842 q -0.0323,-0.1426575 -0.09152,-0.2072571 -0.09825,-0.1036286 -0.242249,-0.1036286 -0.115741,0 -0.203219,0.0646 -0.114396,0.083441 -0.180341,0.2435943 -0.06594,0.1601532 -0.06864,0.4562347 0.08748,-0.1332367 0.213986,-0.1978363 0.126508,-0.0646 0.265128,-0.0646 0.242248,0 0.411822,0.1789948 0.17092,0.1776489 0.17092,0.4602722 0,0.1857238 -0.08075,0.345877 -0.0794,0.1588074 -0.219369,0.2435944 -0.139966,0.084787 -0.317615,0.084787 -0.30281,0 -0.493918,-0.2220612 -0.191107,-0.223407 -0.191107,-0.7348205 0,-0.5719757 0.211295,-0.8317199 0.184378,-0.2260987 0.496609,-0.2260987 0.232828,0 0.380869,0.1305451 0.149386,0.130545 0.178995,0.3606811 z M 42.17434,8.2621279 q 0,0.1251617 0.05249,0.2395569 0.05383,0.1143951 0.149387,0.1749572 0.09555,0.059216 0.200528,0.059216 0.153424,0 0.263781,-0.123816 0.110358,-0.1238159 0.110358,-0.3364563 0,-0.2045654 -0.109012,-0.3216522 -0.109012,-0.1184326 -0.274548,-0.1184326 -0.164191,0 -0.278586,0.1184326 -0.114395,0.1170868 -0.114395,0.308194 z"
     id="text1-9"
     aria-label="IIC2026" />
  <path
     d="m 33.970676,3.0518495 h 1.558853 q 0.509267,0 0.76183,0.2422123 0.254634,0.2422122 0.254634,0.6893734 0,0.4595822 -0.277406,0.718356 Q 35.993252,4.960565 35.42602,4.960565 h -0.513408 v 1.1261836 h -0.941936 z m 0.941936,1.293869 h 0.229792 q 0.271194,0 0.380915,-0.093159 0.10972,-0.095229 0.10972,-0.2422123 0,-0.1428431 -0.09523,-0.2422122 -0.09523,-0.099369 -0.358143,-0.099369 h -0.267055 z m 4.098977,-1.293869 h 0.935726 v 1.8093464 q 0,0.2691247 -0.08488,0.5092668 -0.08281,0.2380719 -0.262914,0.4181785 -0.178037,0.1780364 -0.374705,0.250493 -0.273265,0.1014394 -0.65625,0.1014394 -0.221511,0 -0.484425,-0.031053 Q 37.8233,6.0784678 37.647334,5.9873795 37.471368,5.8942209 37.324384,5.7244653 37.179471,5.5547097 37.125646,5.3746031 37.038698,5.0847765 37.038698,4.8611959 V 3.0518495 h 0.935726 v 1.8528204 q 0,0.2484228 0.136633,0.3891958 0.138702,0.1387027 0.382985,0.1387027 0.242212,0 0.378845,-0.1366325 0.138702,-0.1387028 0.138702,-0.391266 z m 3.577289,1.7948551 0.821866,0.2484228 q -0.08281,0.3457218 -0.260844,0.5775831 -0.178036,0.2318613 -0.443021,0.3498622 -0.262914,0.1180009 -0.670741,0.1180009 -0.494776,0 -0.809445,-0.1428432 -0.312599,-0.1449133 -0.54032,-0.5071966 -0.227721,-0.3622833 -0.227721,-0.9274453 0,-0.7535493 0.399547,-1.1572364 0.401617,-0.4057574 1.134465,-0.4057574 0.573442,0 0.900532,0.2318614 0.329161,0.2318613 0.488565,0.7121455 l -0.828076,0.1842469 q -0.04347,-0.1387028 -0.09109,-0.2028787 -0.07867,-0.1076499 -0.192528,-0.1656152 -0.11386,-0.057965 -0.254633,-0.057965 -0.31881,0 -0.488565,0.2567036 -0.128352,0.1904575 -0.128352,0.598285 0,0.5051265 0.153194,0.6935138 0.153194,0.1863171 0.4306,0.1863171 0.269124,0 0.405757,-0.1511239 0.138703,-0.1511239 0.200808,-0.4388803 z"
     id="text2"
     style="font-weight:900;font-size:4.23975px;line-height:1.25;font-family:Arial;-inkscape-font-specification:'Arial, Heavy';stroke-width:0.105993"
     aria-label="PUC" />
</svg>
